<svg width="16" height="18" viewBox="0 0 16 18" fill="none" xmlns="http://www.w3.org/2000/svg">
<path d="M6 17H4C2.34315 17 1 15.6569 1 14V4C1 2.34315 2.34315 1 4 1H11C12.6569 1 14 2.34315 14 4V6.5M10.5 11.5V10.5C10.5 9.67157 11.1716 9 12 9C12.8284 9 13.5 9.67157 13.5 10.5V12M10.5 5H4M7.5 8H4M6 11H4M10 17H14C14.5523 17 15 16.5523 15 16V13C15 12.4477 14.5523 12 14 12H10C9.44772 12 9 12.4477 9 13V16C9 16.5523 9.44772 17 10 17Z" stroke="white" stroke-width="1.2" stroke-linecap="round" stroke-linejoin="round"/>
</svg>
