<svg width="24" height="24" viewBox="0 0 24 24" fill="none" xmlns="http://www.w3.org/2000/svg">
<g clip-path="url(#clip0_345_101)">
<path d="M10.8242 11.6185C11.2799 11.4345 11.6842 11.1413 12.0002 10.7655C12.3162 11.1413 12.7205 11.4345 13.1762 11.6185C12.9159 12.0347 12.7614 12.5092 12.727 12.9987C12.2501 12.8802 11.7503 12.8802 11.2734 12.9987C11.239 12.5092 11.0845 12.0347 10.8242 11.6185Z" fill="url(#paint0_linear_345_101)"/>
<path fill-rule="evenodd" clip-rule="evenodd" d="M1.57888 10.7727C1.78658 10.8171 2.03009 10.8171 2.51717 10.8171C3.17342 10.8171 3.70541 11.4689 3.70541 12.2729C3.70541 13.0769 3.17342 13.7287 2.51717 13.7287C2.03989 13.7287 1.80125 13.7287 1.59463 13.7727C0.811204 13.9396 0.167141 14.613 0.0363134 15.4021C0.00181336 15.6102 0.0117977 15.8264 0.0317665 16.2588C0.0952352 17.6321 0.236938 18.6136 0.553063 19.4616C1.18634 21.1602 2.10008 22.224 3.48645 23C4.74059 23.7019 6.55063 24 9.77464 24H14.2253C17.4494 24 19.2594 23.7019 20.5136 23C21.9 22.2241 22.8137 21.1602 23.447 19.4616C23.763 18.6136 23.9047 17.6321 23.9683 16.2588C23.9883 15.8264 23.9983 15.6102 23.9638 15.4021C23.8328 14.613 23.1889 13.9396 22.4053 13.7729C22.1988 13.7288 21.96 13.7288 21.4828 13.7288C20.8265 13.7288 20.2946 13.077 20.2946 12.273C20.2946 11.469 20.8265 10.8172 21.4828 10.8172C21.9698 10.8172 22.2134 10.8172 22.421 10.7728C23.1988 10.6062 23.8286 9.95784 23.9715 9.17677C24.0097 8.96817 24.0028 8.74031 23.9888 8.28459C23.9379 6.61969 23.8033 5.49427 23.447 4.53844C22.8137 2.83987 21.8999 1.77595 20.5136 1.00008C19.2594 0.298125 17.4494 0 14.2253 0H9.77464C6.55058 0 4.74059 0.298125 3.48641 0.999984C2.10003 1.77586 1.1863 2.83978 0.553017 4.53834C0.196673 5.49417 0.0620009 6.61959 0.0110946 8.28455C-0.00282726 8.74022 -0.00981164 8.96808 0.0283915 9.17667C0.17136 9.9578 0.801219 10.6062 1.57888 10.7727ZM11.0474 7.92703C11.3473 7.0057 12.6527 7.0057 12.9526 7.92703L13.3492 9.14587C13.4833 9.55791 13.8679 9.83686 14.3018 9.83686H15.5854C16.5557 9.83686 16.9591 11.0765 16.1742 11.6459L15.1356 12.3991C14.7845 12.6537 14.6376 13.1051 14.7718 13.5172L15.1685 14.736C15.4683 15.6573 14.4122 16.4235 13.6272 15.8541L12.5886 15.1008C12.2376 14.8462 11.7622 14.8462 11.4112 15.1008L10.3727 15.8541C9.58775 16.4235 8.53161 15.6574 8.83142 14.736L9.22808 13.5172C9.36214 13.1052 9.21528 12.6538 8.86423 12.3991L7.82577 11.6459C7.0408 11.0765 7.4442 9.83686 8.41452 9.83686H9.69814C10.1321 9.83686 10.5167 9.55791 10.6507 9.14587L11.0474 7.92703Z" fill="url(#paint1_linear_345_101)"/>
</g>
<defs>
<linearGradient id="paint0_linear_345_101" x1="12.0002" y1="10.7655" x2="12.0002" y2="12.9987" gradientUnits="userSpaceOnUse">
<stop stop-color="#0A35C2"/>
<stop offset="1" stop-color="#0368FF"/>
</linearGradient>
<linearGradient id="paint1_linear_345_101" x1="12" y1="0" x2="12" y2="24" gradientUnits="userSpaceOnUse">
<stop stop-color="#0A35C2"/>
<stop offset="1" stop-color="#0368FF"/>
</linearGradient>
<clipPath id="clip0_345_101">
<rect width="24" height="24" fill="white"/>
</clipPath>
</defs>
</svg>
