<svg width="24" height="24" viewBox="0 0 24 24" fill="none" xmlns="http://www.w3.org/2000/svg">
<path d="M12 12C14.7614 12 17 9.76142 17 7C17 4.23858 14.7614 2 12 2C9.23858 2 7 4.23858 7 7C7 9.76142 9.23858 12 12 12Z" fill="url(#paint0_linear_1_353)"/>
<path d="M11.9999 14.5C6.98991 14.5 2.90991 17.86 2.90991 22C2.90991 22.28 3.12991 22.5 3.40991 22.5H20.5899C20.8699 22.5 21.0899 22.28 21.0899 22C21.0899 17.86 17.0099 14.5 11.9999 14.5Z" fill="url(#paint1_linear_1_353)"/>
<defs>
<linearGradient id="paint0_linear_1_353" x1="7" y1="2" x2="17" y2="12" gradientUnits="userSpaceOnUse">
<stop stop-color="#0A35C2"/>
<stop offset="1" stop-color="#0368FF"/>
</linearGradient>
<linearGradient id="paint1_linear_1_353" x1="2.90991" y1="14.5" x2="8.80843" y2="27.9044" gradientUnits="userSpaceOnUse">
<stop stop-color="#0A35C2"/>
<stop offset="1" stop-color="#0368FF"/>
</linearGradient>
</defs>
</svg>
