<?xml version="1.0" encoding="utf-8"?>
<!-- Generator: Adobe Illustrator 25.0.0, SVG Export Plug-In . SVG Version: 6.00 Build 0)  -->
<svg version="1.1" id="Layer_1" xmlns="http://www.w3.org/2000/svg" xmlns:xlink="http://www.w3.org/1999/xlink" x="0px" y="0px"
	 viewBox="0 0 512 512" style="enable-background:new 0 0 512 512;" xml:space="preserve">
<style type="text/css">
	.st0{fill:#FFFFFF;}
</style>
<g>
	<path class="st0" d="M490.4,347.1c12.9-5,21.6-17.7,21.6-31.7v-64.6c0-19.1-15.6-34.7-34.7-34.7h-3.5c10.5-13.6,9.5-33.3-2.9-45.8
		l-45.7-45.7c-9.9-9.9-25-12.7-37.7-7.1c-6.8,3-14.9,1.5-20.2-3.8c-5.3-5.3-6.8-13.4-3.8-20.2c5.6-12.7,2.7-27.8-7.1-37.7
		l-45.7-45.7c-13.5-13.5-35.6-13.5-49.1,0L55.6,216.1H34.7C15.6,216.1,0,231.6,0,250.8v64.6c0,14,8.7,26.7,21.6,31.7
		c6.9,2.7,11.6,9.5,11.6,17c0,7.5-4.7,14.3-11.6,17C8.7,386,0,398.7,0,412.7v64.6C0,496.4,15.6,512,34.7,512h442.6
		c19.1,0,34.7-15.6,34.7-34.7v-64.6c0-14-8.7-26.7-21.6-31.7c-6.9-2.7-11.6-9.5-11.6-17C478.8,356.6,483.4,349.8,490.4,347.1
		L490.4,347.1z M282.8,31.5c1.8-1.8,4.7-1.8,6.5,0L335,77.1c1.1,1.1,1.5,2.8,0.9,4.2c-8,18.1-4,39.7,10,53.7c14,14,35.6,18,53.7,10
		c1.4-0.6,3.1-0.3,4.2,0.9l45.7,45.7c1.8,1.8,1.8,4.7,0,6.5l-18,17.9h-78.5L225.7,88.6L282.8,31.5z M204.4,109.9l106.1,106.1H98.2
		L204.4,109.9z M30.1,477.3v-64.6c0-1.6,1-3.1,2.4-3.6c18.5-7.1,30.9-25.2,30.9-45c0-19.8-12.4-37.9-30.9-45c-1.4-0.5-2.4-2-2.4-3.6
		v-64.6c0-2.5,2.1-4.6,4.6-4.6h341.8v235.7H34.7C32.2,481.9,30.1,479.8,30.1,477.3L30.1,477.3z M481.9,315.4c0,1.6-1,3.1-2.4,3.6
		c-18.5,7.1-30.9,25.2-30.9,45c0,19.8,12.4,37.9,30.9,45c1.4,0.6,2.4,2,2.4,3.6v64.6c0,2.5-2.1,4.6-4.6,4.6h-70.7V246.2h70.7
		c2.5,0,4.6,2.1,4.6,4.6V315.4z"/>
	<path class="st0" d="M105.4,286.1h225.9v30.1H105.4V286.1z"/>
	<path class="st0" d="M105.4,346.3h225.9v30.1H105.4V346.3z"/>
	<path class="st0" d="M105.4,406.6h225.9v30.1H105.4V406.6z"/>
</g>
</svg>
