<?xml version="1.0" encoding="utf-8"?>
<!-- Generator: Adobe Illustrator 25.0.0, SVG Export Plug-In . SVG Version: 6.00 Build 0)  -->
<svg version="1.1" id="Capa_1" xmlns="http://www.w3.org/2000/svg" xmlns:xlink="http://www.w3.org/1999/xlink" x="0px" y="0px"
	 viewBox="0 0 512 512" style="enable-background:new 0 0 512 512;" xml:space="preserve">
<style type="text/css">
	.st0{fill:#FFFFFF;}
</style>
<g>
	<g>
		<g>
			<path class="st0" d="M501.5,176.7L481,140.9c-5.5-9.5-17.6-12.9-27.2-7.5c-3,1.7-6.3,2.6-9.8,2.6c-11,0-20-9-20-20
				c0-7.1,3.8-13.7,10-17.3c9.5-5.5,12.7-17.7,7.3-27.2l-18.1-31.6c-10.5-18.3-27.5-31.5-47.9-37c-20.4-5.5-41.7-2.8-60.1,7.7
				L39.8,168.4C15.3,182.4,0.1,208.7,0,237v76c0,11,9,20,20,20c11,0,20,9,20,20s-9,20-20,20c-11,0-20,9-20,20v39
				c0,44.1,35.9,80,80,80h322c44.1,0,80-35.9,80-80v-39c0-11-9-20-20-20c-11,0-20-9-20-20s9-20,20-20c11,0,20-9,20-20v-34.9
				C512.2,254.2,521.2,211.1,501.5,176.7z M469.7,229.3C455.5,206.9,430.5,192,402,192h-49.7c3.4-6,3.7-13.5,0.1-19.9
				c-5.5-9.6-17.7-12.9-27.3-7.4s-12.9,17.7-7.4,27.3c0,0,0,0,0,0.1H211c-11,0-20,9-20,20s9,20,20,20h191c22.1,0,40,17.9,40,40v24.4
				c-23.3,8.3-40,30.5-40,56.6s16.7,48.3,40,56.6V432c0,22.1-17.9,40-40,40H80c-22.1,0-40-17.9-40-40v-22.4
				c23.3-8.3,40-30.5,40-56.6s-16.7-48.3-40-56.6V272c0-22.1,17.9-40,40-40h31c11,0,20-9,20-20s-9-20-20-20H80c-0.3,0-0.7,0-1,0
				L335,45.2c9.1-5.2,19.6-6.6,29.7-3.8c10.1,2.7,18.5,9.2,23.7,18.3l10,17.4C389.3,87.8,384,101.6,384,116c0,33.1,26.9,60,60,60
				c3.5,0,7-0.3,10.5-0.9l12.3,21.5C472.8,206.9,473.4,218.9,469.7,229.3z"/>
			<circle class="st0" cx="332" cy="282" r="20"/>
			<circle class="st0" cx="332" cy="352" r="20"/>
			<circle class="st0" cx="332" cy="422" r="20"/>
			<circle class="st0" cx="300" cy="121" r="20"/>
		</g>
	</g>
</g>
<path class="st0" d="M131.2,262h138.9c11,0,20,9,20,20v0c0,11-9,20-20,20H131.2c-11,0-20-9-20-20v0C111.2,270.9,120.1,262,131.2,262
	z"/>
<path class="st0" d="M131.2,332h138.9c11,0,20,9,20,20v0c0,11-9,20-20,20H131.2c-11,0-20-9-20-20v0C111.2,340.9,120.1,332,131.2,332
	z"/>
<path class="st0" d="M131.2,402h138.9c11,0,20,9,20,20v0c0,11-9,20-20,20H131.2c-11,0-20-9-20-20v0C111.2,410.9,120.1,402,131.2,402
	z"/>
</svg>
