<svg width="174" height="42" viewBox="0 0 174 42" fill="none" xmlns="http://www.w3.org/2000/svg">
<path d="M171.117 11.4116C172.498 11.4116 173.617 10.2924 173.617 8.91164C173.617 7.53093 172.498 6.41164 171.117 6.41164C169.736 6.41164 168.617 7.53093 168.617 8.91164C168.617 10.2924 169.736 11.4116 171.117 11.4116Z" fill="white"/>
<path d="M16.213 34.8143C12.4362 38.5912 6.03964 38.5761 4.25325 33.5424C3.9035 32.5569 3.62386 31.5436 3.41819 30.5096C2.57844 26.2878 3.00943 21.9119 4.65667 17.935C6.30391 13.9583 9.09341 10.5593 12.6724 8.16784C16.2515 5.77642 20.4593 4.5 24.7637 4.5C29.0682 4.5 33.276 5.77642 36.8549 8.16784C40.434 10.5593 43.2235 13.9583 44.8707 17.9351C46.518 21.9119 46.9489 26.2878 46.1092 30.5096C45.9035 31.5436 45.6239 32.5569 45.2741 33.5424C43.4877 38.5761 37.0912 38.5912 33.3143 34.8143L27.4841 28.9841C26.9271 28.4271 26.9847 27.5085 27.1384 26.736C27.2317 26.2664 27.1838 25.7796 27.0005 25.3371C26.8172 24.8947 26.507 24.5166 26.1088 24.2506C25.7107 23.9846 25.2426 23.8426 24.7637 23.8426C24.2849 23.8426 23.8168 23.9846 23.4186 24.2506C23.0203 24.5166 22.7101 24.8947 22.5268 25.3371C22.3436 25.7796 22.2956 26.2664 22.3891 26.736C22.5428 27.5085 22.6002 28.4271 22.0432 28.9841L16.213 34.8143Z" fill="url(#paint0_linear_214_29)"/>
<path d="M4.25325 33.5424L4.60666 33.417C5.44421 35.7771 7.3493 36.9565 9.51295 37.1082C11.6919 37.261 14.1309 36.3661 15.9479 34.5491L21.778 28.719C21.9745 28.5225 22.0781 28.2485 22.1092 27.9069C22.1405 27.563 22.0952 27.1808 22.0213 26.8092L4.25325 33.5424ZM4.25325 33.5424L4.60665 33.417C4.26293 32.4485 3.98812 31.4526 3.78599 30.4364C2.9607 26.2873 3.38427 21.9868 5.00313 18.0785C6.62198 14.1703 9.36342 10.8299 12.8808 8.47964C16.3982 6.12942 20.5335 4.875 24.7637 4.875C28.994 4.875 33.1293 6.12942 36.6466 8.47964C40.164 10.8299 42.9054 14.1703 44.5243 18.0786C46.1431 21.9868 46.5666 26.2873 45.7414 30.4364C45.5393 31.4526 45.2645 32.4485 44.9207 33.417L44.9206 33.417M4.25325 33.5424L44.9206 33.417M44.9206 33.417C44.0831 35.7771 42.178 36.9565 40.0144 37.1082C37.8355 37.261 35.3964 36.3661 33.5794 34.5491L27.7493 28.719C27.5529 28.5225 27.4493 28.2485 27.4182 27.9069C27.3869 27.5631 27.4322 27.1808 27.5061 26.8092L27.5062 26.8091M44.9206 33.417L27.5062 26.8091M27.5062 26.8091C27.6139 26.2668 27.5586 25.7046 27.3469 25.1936M27.5062 26.8091L27.3469 25.1936M27.3469 25.1936C27.1353 24.6827 26.777 24.246 26.3171 23.9387M27.3469 25.1936L26.3171 23.9387M26.3171 23.9387C25.8573 23.6316 25.3168 23.4676 24.7637 23.4676M26.3171 23.9387L24.7637 23.4676M24.7637 23.4676C24.2107 23.4676 23.6701 23.6316 23.2104 23.9387L24.7637 23.4676ZM23.2103 23.9387C22.7503 24.246 22.392 24.6828 22.1804 25.1936C21.9687 25.7046 21.9134 26.2668 22.0213 26.8092L23.2103 23.9387Z" stroke="url(#paint1_linear_214_29)" stroke-opacity="0.3" stroke-width="0.75"/>
<path d="M52.8091 11.27H63.3691C65.0939 11.27 66.3611 11.666 67.1707 12.458C67.9803 13.2324 68.3851 14.4204 68.3851 16.022C68.3851 17.078 68.1563 17.9404 67.6987 18.6092C67.2411 19.2604 66.6779 19.718 66.0091 19.982C67.4347 20.3692 68.4027 21.3196 68.9131 22.8332C69.0891 23.3788 69.1771 24.0124 69.1771 24.734C69.1771 26.4588 68.7723 27.726 67.9627 28.5356C67.1531 29.3452 65.8859 29.75 64.1611 29.75H52.8091V11.27ZM64.4251 23.942C64.4251 22.886 63.8971 22.358 62.8411 22.358H57.5611V26.054H62.8411C63.8971 26.054 64.4251 25.526 64.4251 24.47V23.942ZM63.6331 16.55C63.6331 15.494 63.1051 14.966 62.0491 14.966H57.5611V18.662H62.0491C63.1051 18.662 63.6331 18.134 63.6331 17.078V16.55ZM87.6561 29.75H82.6401L76.3041 18.662V29.75H71.5521V11.27H76.5681L82.9041 22.358V11.27H87.6561V29.75ZM105.488 29.75H90.8364V11.27H105.488V14.966H95.5885V18.53H103.376V22.226H95.5885V26.054H105.488V29.75ZM120.261 26.054H129.897V29.75H115.509V11.27H120.261V26.054ZM137.295 16.286V29.75H132.675V19.85H130.695V16.286H137.295ZM132.675 11.006H137.295V14.702H132.675V11.006ZM149.316 15.758H154.2L148.92 29.75H143.64L138.36 15.758H143.244L146.28 25.262L149.316 15.758ZM160.412 18.794C159.708 18.794 159.356 19.146 159.356 19.85V21.302H163.844V19.85C163.844 19.146 163.492 18.794 162.788 18.794H160.412ZM167.936 29.486C164.539 29.838 161.459 30.014 158.696 30.014C157.499 30.014 156.54 29.6532 155.818 28.9316C155.097 28.21 154.736 27.2508 154.736 26.054V19.718C154.736 18.398 155.105 17.3684 155.845 16.6292C156.601 15.8724 157.64 15.494 158.96 15.494H164.24C165.56 15.494 166.589 15.8724 167.329 16.6292C168.085 17.3684 168.464 18.398 168.464 19.718V24.602H159.356V25.658C159.356 25.922 159.444 26.142 159.62 26.318C159.796 26.494 160.016 26.582 160.28 26.582C162.022 26.582 164.574 26.45 167.936 26.186V29.486Z" fill="white"/>
<defs>
<linearGradient id="paint0_linear_214_29" x1="46.0026" y1="37.3843" x2="5.91579" y2="15.3818" gradientUnits="userSpaceOnUse">
<stop offset="0.161458" stop-color="#1DACE3"/>
<stop offset="0.510417" stop-color="#052E79"/>
<stop offset="0.875" stop-color="#E9327C"/>
</linearGradient>
<linearGradient id="paint1_linear_214_29" x1="8.25" y1="12" x2="42.75" y2="38.625" gradientUnits="userSpaceOnUse">
<stop offset="0.15625" stop-color="white"/>
<stop offset="1" stop-color="white" stop-opacity="0"/>
</linearGradient>
</defs>
</svg>
