<svg width="44" height="34" viewBox="0 0 44 34" fill="none" xmlns="http://www.w3.org/2000/svg">
<path d="M13.213 30.8143C9.43619 34.5912 3.03964 34.5761 1.25325 29.5424C0.903501 28.5569 0.623864 27.5436 0.418192 26.5096C-0.421563 22.2878 0.00942984 17.9119 1.65667 13.935C3.30391 9.95829 6.09341 6.55926 9.67243 4.16784C13.2515 1.77642 17.4593 0.5 21.7637 0.5C26.0682 0.5 30.276 1.77642 33.8549 4.16784C37.434 6.55926 40.2235 9.95829 41.8707 13.9351C43.518 17.9119 43.9489 22.2878 43.1092 26.5096C42.9035 27.5436 42.6239 28.5569 42.2741 29.5424C40.4877 34.5761 34.0912 34.5912 30.3143 30.8143L24.4841 24.9841C23.9271 24.4271 23.9847 23.5085 24.1384 22.736C24.2317 22.2664 24.1838 21.7796 24.0005 21.3371C23.8172 20.8947 23.507 20.5166 23.1088 20.2506C22.7107 19.9846 22.2426 19.8426 21.7637 19.8426C21.2849 19.8426 20.8168 19.9846 20.4186 20.2506C20.0203 20.5166 19.7101 20.8947 19.5268 21.3371C19.3436 21.7796 19.2956 22.2664 19.3891 22.736C19.5428 23.5085 19.6002 24.4271 19.0432 24.9841L13.213 30.8143Z" fill="url(#paint0_linear_214_27)"/>
<path d="M1.25325 29.5424L1.60666 29.417C2.44421 31.7771 4.3493 32.9565 6.51295 33.1082C8.69187 33.261 11.1309 32.3661 12.9479 30.5491L18.778 24.719C18.9745 24.5225 19.0781 24.2485 19.1092 23.9069C19.1405 23.563 19.0952 23.1808 19.0213 22.8092L1.25325 29.5424ZM1.25325 29.5424L1.60665 29.417C1.26293 28.4485 0.988116 27.4526 0.785986 26.4364C-0.0392996 22.2873 0.384267 17.9868 2.00313 14.0785C3.62198 10.1703 6.36342 6.82986 9.88077 4.47964C13.3982 2.12942 17.5335 0.875 21.7637 0.875C25.994 0.875 30.1293 2.12942 33.6466 4.47964C37.164 6.82986 39.9054 10.1703 41.5243 14.0786C43.1431 17.9868 43.5666 22.2873 42.7414 26.4364C42.5393 27.4526 42.2645 28.4485 41.9207 29.417L41.9206 29.417M1.25325 29.5424L41.9206 29.417M41.9206 29.417C41.0831 31.7771 39.178 32.9565 37.0144 33.1082C34.8355 33.261 32.3964 32.3661 30.5794 30.5491L24.7493 24.719C24.5529 24.5225 24.4493 24.2485 24.4182 23.9069C24.3869 23.5631 24.4322 23.1808 24.5061 22.8092L24.5062 22.8091M41.9206 29.417L24.5062 22.8091M24.5062 22.8091C24.6139 22.2668 24.5586 21.7046 24.3469 21.1936M24.5062 22.8091L24.3469 21.1936M24.3469 21.1936C24.1353 20.6827 23.777 20.246 23.3171 19.9387M24.3469 21.1936L23.3171 19.9387M23.3171 19.9387C22.8573 19.6316 22.3168 19.4676 21.7637 19.4676M23.3171 19.9387L21.7637 19.4676M21.7637 19.4676C21.2107 19.4676 20.6701 19.6316 20.2104 19.9387L21.7637 19.4676ZM20.2103 19.9387C19.7503 20.246 19.392 20.6828 19.1804 21.1936C18.9687 21.7046 18.9134 22.2668 19.0213 22.8092L20.2103 19.9387Z" stroke="url(#paint1_linear_214_27)" stroke-opacity="0.3" stroke-width="0.75"/>
<defs>
<linearGradient id="paint0_linear_214_27" x1="43.0026" y1="33.3843" x2="2.91579" y2="11.3818" gradientUnits="userSpaceOnUse">
<stop offset="0.161458" stop-color="#1DACE3"/>
<stop offset="0.510417" stop-color="#052E79"/>
<stop offset="0.875" stop-color="#E9327C"/>
</linearGradient>
<linearGradient id="paint1_linear_214_27" x1="5.25" y1="8" x2="39.75" y2="34.625" gradientUnits="userSpaceOnUse">
<stop offset="0.15625" stop-color="white"/>
<stop offset="1" stop-color="white" stop-opacity="0"/>
</linearGradient>
</defs>
</svg>
