<svg width="262" height="55" viewBox="0 0 262 55" fill="none" xmlns="http://www.w3.org/2000/svg">
<g clip-path="url(#clip0_101_43)">
<path d="M256.985 15.0388C259.284 15.0388 261.146 13.1756 261.146 10.8772C261.146 8.57877 259.284 6.71552 256.985 6.71552C254.686 6.71552 252.823 8.57877 252.823 10.8772C252.823 13.1756 254.686 15.0388 256.985 15.0388Z" fill="white"/>
<path d="M21.6174 45.919C16.5816 50.9549 8.05285 50.9348 5.671 44.2232C5.20467 42.9092 4.83182 41.5581 4.55759 40.1795C3.43792 34.5503 4.01257 28.7158 6.2089 23.4134C8.40522 18.111 12.1246 13.579 16.8966 10.3905C21.6687 7.20189 27.2791 5.5 33.0183 5.5C38.7575 5.5 44.3679 7.20189 49.1399 10.3905C53.912 13.579 57.6313 18.1111 59.8276 23.4135C62.0239 28.7158 62.5985 34.5503 61.4789 40.1795C61.2047 41.5581 60.8319 42.9092 60.3654 44.2232C57.9836 50.9348 49.4549 50.9549 44.419 45.919L36.6455 38.1455C35.9028 37.4028 35.9796 36.178 36.1845 35.148C36.3089 34.5218 36.245 33.8728 36.0007 33.2829C35.7563 32.693 35.3426 32.1887 34.8118 31.8341C34.2809 31.4795 33.6568 31.2901 33.0183 31.2901C32.3798 31.2901 31.7557 31.4795 31.2248 31.8341C30.6938 32.1887 30.2801 32.693 30.0358 33.2829C29.7914 33.8728 29.7275 34.5218 29.8521 35.148C30.057 36.178 30.1336 37.4028 29.3909 38.1455L21.6174 45.919Z" fill="url(#paint0_linear_101_43)"/>
<path d="M59.8942 44.056L59.8942 44.056C58.7775 47.2028 56.2374 48.7754 53.3525 48.9776C50.4473 49.1813 47.1953 47.9881 44.7726 45.5655L36.9991 37.792C36.7371 37.53 36.5991 37.1647 36.5576 36.7092C36.5159 36.2507 36.5763 35.741 36.6749 35.2455L36.6749 35.2455C36.8186 34.5224 36.7448 33.7728 36.4626 33.0915C36.1804 32.4103 35.7027 31.828 35.0895 31.4183C34.4765 31.0088 33.7557 30.7901 33.0183 30.7901C32.2809 30.7901 31.5602 31.0088 30.9472 31.4183C30.3338 31.8279 29.856 32.4103 29.5738 33.0915C29.2916 33.7728 29.2178 34.5224 29.3617 35.2455C29.4603 35.741 29.5207 36.2507 29.4789 36.7092C29.4374 37.1646 29.2993 37.53 29.0374 37.792L21.2638 45.5655C18.8412 47.9881 15.5892 49.1813 12.6839 48.9776C9.79907 48.7754 7.25895 47.2028 6.14221 44.056C5.68391 42.7646 5.31749 41.4368 5.04798 40.0819C3.9476 34.5498 4.51236 28.8158 6.67084 23.6047C8.82931 18.3938 12.4846 13.9398 17.1744 10.8062C21.8642 7.67257 27.378 6 33.0183 6C38.6587 6 44.1724 7.67257 48.8621 10.8062L49.1399 10.3905L48.8621 10.8062C53.552 13.9398 57.2072 18.3938 59.3657 23.6049L59.8276 23.4135L59.3657 23.6049C61.5242 28.8158 62.0888 34.5498 60.9885 40.0819C60.719 41.4368 60.3526 42.7646 59.8942 44.056Z" stroke="url(#paint1_linear_101_43)" stroke-opacity="0.3"/>
<path d="M91.884 39.5H85.196L76.748 24.716V39.5H70.412V14.86H77.1L85.548 29.644V14.86H91.884V39.5ZM96.1245 14.86H110.908C113.372 14.86 115.156 15.4232 116.259 16.5496C117.385 17.6525 117.948 19.436 117.948 21.9V25.42C117.948 27.884 117.385 29.6792 116.259 30.8056C115.156 31.9085 113.372 32.46 110.908 32.46H102.46V39.5H96.1245V14.86ZM111.612 21.9C111.612 20.492 110.908 19.788 109.5 19.788H102.46V27.532H109.5C110.908 27.532 111.612 26.828 111.612 25.42V21.9ZM142.235 25.772L137.307 34.572H132.379L127.451 25.772V39.5H121.115V14.86H127.803L134.843 27.884L141.883 14.86H148.571V39.5H142.235V25.772ZM162.623 34.396C169.053 34.748 173.406 34.924 175.682 34.924C176.222 34.924 176.644 34.7715 176.949 34.4664C177.278 34.1379 177.442 33.7037 177.442 33.164V29.996H169.346C166.882 29.996 165.087 29.4445 163.96 28.3416C162.857 27.2152 162.306 25.42 162.306 22.956V21.9C162.306 19.436 162.857 17.6525 163.96 16.5496C165.087 15.4232 166.882 14.86 169.346 14.86H181.701V19.788H170.754C169.346 19.788 168.642 20.492 168.642 21.9V22.604C168.642 24.012 169.346 24.716 170.754 24.716H177.09C179.39 24.716 181.079 25.2557 182.159 26.3352C183.238 27.4147 183.778 29.1043 183.778 31.404V33.164C183.778 35.4637 183.238 37.1533 182.159 38.2328C181.079 39.3123 179.39 39.852 177.09 39.852C175.893 39.852 174.626 39.8285 173.288 39.7816L170.05 39.6408C167.656 39.5235 165.181 39.3592 162.623 39.148V34.396ZM199.615 39.5C197.339 39.7347 195.11 39.852 192.927 39.852C191.332 39.852 190.053 39.3709 189.09 38.4088C188.128 37.4467 187.647 36.1677 187.647 34.572V25.596H185.535V20.844H187.647L188.351 16.62H193.807V20.844H198.207V25.596H193.807V33.692C193.807 34.044 193.925 34.3373 194.159 34.572C194.394 34.8067 194.687 34.924 195.039 34.924H199.615V39.5ZM208.799 34.924C210.043 34.924 211.451 34.6893 213.023 34.22V32.108H207.919C207.567 32.108 207.274 32.2253 207.039 32.46C206.804 32.6947 206.687 32.988 206.687 33.34V33.692C206.687 34.044 206.804 34.3373 207.039 34.572C207.274 34.8067 207.567 34.924 207.919 34.924H208.799ZM202.287 21.196C206.581 20.7267 210.453 20.492 213.903 20.492C215.499 20.492 216.778 20.9731 217.74 21.9352C218.702 22.8973 219.183 24.1763 219.183 25.772V39.5H213.727L213.375 37.74C212.272 38.4675 211.134 39.0072 209.96 39.3592C208.811 39.6877 207.837 39.852 207.039 39.852H205.807C204.211 39.852 202.932 39.3709 201.97 38.4088C201.008 37.4467 200.527 36.1677 200.527 34.572V32.988C200.527 31.3923 201.008 30.1133 201.97 29.1512C202.932 28.1891 204.211 27.708 205.807 27.708H213.023V26.3C213.023 25.948 212.906 25.6547 212.671 25.42C212.436 25.1853 212.143 25.068 211.791 25.068C210.266 25.068 208.576 25.1384 206.722 25.2792C204.892 25.42 203.413 25.5256 202.287 25.596V21.196ZM233.077 25.948C231.599 25.948 230.074 26.3 228.501 27.004V39.5H222.341V20.844H227.797L228.149 23.132C230.167 21.372 232.279 20.492 234.485 20.492H236.069V25.948H233.077ZM251.556 39.5C249.28 39.7347 247.05 39.852 244.868 39.852C243.272 39.852 241.993 39.3709 241.031 38.4088C240.069 37.4467 239.588 36.1677 239.588 34.572V25.596H237.476V20.844H239.588L240.292 16.62H245.748V20.844H250.148V25.596H245.748V33.692C245.748 34.044 245.865 34.3373 246.1 34.572C246.335 34.8067 246.628 34.924 246.98 34.924H251.556V39.5Z" fill="white"/>
</g>
<defs>
<linearGradient id="paint0_linear_101_43" x1="61.3368" y1="49.3458" x2="7.88772" y2="20.0091" gradientUnits="userSpaceOnUse">
<stop offset="0.161458" stop-color="#1DACE3"/>
<stop offset="0.510417" stop-color="#052E79"/>
<stop offset="0.875" stop-color="#E9327C"/>
</linearGradient>
<linearGradient id="paint1_linear_101_43" x1="11" y1="15.5" x2="57" y2="51" gradientUnits="userSpaceOnUse">
<stop offset="0.15625" stop-color="white"/>
<stop offset="1" stop-color="white" stop-opacity="0"/>
</linearGradient>
<clipPath id="clip0_101_43">
<rect width="261.8" height="55" fill="white" transform="translate(0.0999756)"/>
</clipPath>
</defs>
</svg>
