<svg width="174" height="42" viewBox="0 0 174 42" fill="none" xmlns="http://www.w3.org/2000/svg">
<path d="M171.117 11.4116C172.499 11.4116 173.617 10.2924 173.617 8.91164C173.617 7.53093 172.499 6.41164 171.117 6.41164C169.736 6.41164 168.617 7.53093 168.617 8.91164C168.617 10.2924 169.736 11.4116 171.117 11.4116Z" fill="black"/>
<path d="M16.213 34.8143C12.4362 38.5912 6.03964 38.5761 4.25325 33.5424C3.9035 32.5569 3.62386 31.5436 3.41819 30.5096C2.57844 26.2878 3.00943 21.9119 4.65667 17.935C6.30391 13.9583 9.09341 10.5593 12.6724 8.16784C16.2515 5.77642 20.4593 4.5 24.7637 4.5C29.0682 4.5 33.276 5.77642 36.8549 8.16784C40.434 10.5593 43.2235 13.9583 44.8707 17.9351C46.518 21.9119 46.9489 26.2878 46.1092 30.5096C45.9035 31.5436 45.6239 32.5569 45.2741 33.5424C43.4877 38.5761 37.0912 38.5912 33.3143 34.8143L27.4841 28.9841C26.9271 28.4271 26.9847 27.5085 27.1384 26.736C27.2317 26.2664 27.1838 25.7796 27.0005 25.3371C26.8172 24.8947 26.507 24.5166 26.1088 24.2506C25.7107 23.9846 25.2426 23.8426 24.7637 23.8426C24.2849 23.8426 23.8168 23.9846 23.4186 24.2506C23.0203 24.5166 22.7101 24.8947 22.5268 25.3371C22.3436 25.7796 22.2956 26.2664 22.3891 26.736C22.5428 27.5085 22.6002 28.4271 22.0432 28.9841L16.213 34.8143Z" fill="url(#paint0_linear_217_45)"/>
<path fill-rule="evenodd" clip-rule="evenodd" d="M27.1384 26.736C26.9847 27.5085 26.9271 28.4271 27.4841 28.9841L33.3143 34.8143C37.0912 38.5912 43.4877 38.5761 45.2741 33.5424C45.6239 32.5569 45.9035 31.5436 46.1092 30.5096C46.9489 26.2878 46.518 21.9119 44.8707 17.9351C43.2235 13.9583 40.434 10.5593 36.8549 8.16784C33.276 5.77642 29.0682 4.5 24.7637 4.5C20.4593 4.5 16.2515 5.77642 12.6724 8.16784C9.09341 10.5593 6.30391 13.9583 4.65667 17.935C3.00943 21.9119 2.57844 26.2878 3.41819 30.5096C3.62386 31.5436 3.9035 32.5569 4.25325 33.5424C6.03964 38.5761 12.4362 38.5912 16.213 34.8143L22.0432 28.9841C22.6002 28.4271 22.5428 27.5085 22.3891 26.736C22.2956 26.2664 22.3436 25.7796 22.5268 25.3371C22.7101 24.8947 23.0204 24.5166 23.4186 24.2506C23.8168 23.9846 24.2849 23.8426 24.7637 23.8426C25.2426 23.8426 25.7107 23.9846 26.1088 24.2506C26.507 24.5166 26.8172 24.8947 27.0005 25.3371C27.1838 25.7796 27.2317 26.2664 27.1384 26.736ZM23.002 23.6269C22.4802 23.9754 22.0739 24.4708 21.8339 25.0501C21.5939 25.6296 21.5311 26.2672 21.6535 26.8824M23.0021 23.6269C23.5235 23.2786 24.1365 23.0926 24.7637 23.0926C25.391 23.0926 26.004 23.2786 26.5254 23.6269C27.0471 23.9754 27.4534 24.4708 27.6934 25.0501C27.9334 25.6296 27.9962 26.2672 27.874 26.8822L27.8739 26.8823C27.8029 27.2393 27.7651 27.5811 27.7917 27.8729C27.8178 28.1603 27.9001 28.3394 28.0145 28.4538L33.8446 34.2839C35.5902 36.0295 37.9249 36.8788 39.9882 36.7342C42.0209 36.5916 43.7853 35.4949 44.5672 33.2916L44.5673 33.2915C44.905 32.34 45.175 31.3616 45.3736 30.3633C46.1844 26.2869 45.7683 22.0618 44.1778 18.2222L44.7869 17.9698L44.1778 18.2221C42.5873 14.3823 39.894 11.1005 36.4382 8.79145L36.8549 8.16784L36.4382 8.79144C32.9826 6.48243 28.9198 5.25 24.7637 5.25C20.6076 5.25 16.5448 6.48243 13.0891 8.79144C9.63343 11.1005 6.94006 14.3823 5.34958 18.222C3.7591 22.0618 3.34296 26.2869 4.15378 30.3633C4.35237 31.3616 4.62237 32.34 4.96006 33.2916C5.74198 35.4949 7.50642 36.5916 9.53918 36.7342C11.6025 36.8788 13.9372 36.0295 15.6827 34.2839L21.5129 28.4538C21.6273 28.3394 21.7096 28.1602 21.7357 27.8728C21.7623 27.581 21.7245 27.2393 21.6535 26.8824" fill="url(#paint1_linear_217_45)" fill-opacity="0.3"/>
<path d="M52.809 11.27H63.369C65.0938 11.27 66.361 11.666 67.1706 12.458C67.9802 13.2324 68.385 14.4204 68.385 16.022C68.385 17.078 68.1562 17.9404 67.6986 18.6092C67.241 19.2604 66.6778 19.718 66.009 19.982C67.4346 20.3692 68.4026 21.3196 68.913 22.8332C69.089 23.3788 69.177 24.0124 69.177 24.734C69.177 26.4588 68.7722 27.726 67.9626 28.5356C67.153 29.3452 65.8858 29.75 64.161 29.75H52.809V11.27ZM64.425 23.942C64.425 22.886 63.897 22.358 62.841 22.358H57.561V26.054H62.841C63.897 26.054 64.425 25.526 64.425 24.47V23.942ZM63.633 16.55C63.633 15.494 63.105 14.966 62.049 14.966H57.561V18.662H62.049C63.105 18.662 63.633 18.134 63.633 17.078V16.55ZM87.6559 29.75H82.6399L76.3039 18.662V29.75H71.5519V11.27H76.5679L82.9039 22.358V11.27H87.6559V29.75ZM105.488 29.75H90.8363V11.27H105.488V14.966H95.5883V18.53H103.376V22.226H95.5883V26.054H105.488V29.75ZM120.261 26.054H129.897V29.75H115.509V11.27H120.261V26.054ZM137.295 16.286V29.75H132.675V19.85H130.695V16.286H137.295ZM132.675 11.006H137.295V14.702H132.675V11.006ZM149.315 15.758H154.199L148.919 29.75H143.639L138.359 15.758H143.243L146.279 25.262L149.315 15.758ZM160.412 18.794C159.708 18.794 159.356 19.146 159.356 19.85V21.302H163.844V19.85C163.844 19.146 163.492 18.794 162.788 18.794H160.412ZM167.936 29.486C164.539 29.838 161.459 30.014 158.696 30.014C157.499 30.014 156.54 29.6532 155.818 28.9316C155.096 28.21 154.736 27.2508 154.736 26.054V19.718C154.736 18.398 155.105 17.3684 155.844 16.6292C156.601 15.8724 157.64 15.494 158.96 15.494H164.24C165.56 15.494 166.589 15.8724 167.328 16.6292C168.085 17.3684 168.464 18.398 168.464 19.718V24.602H159.356V25.658C159.356 25.922 159.444 26.142 159.62 26.318C159.796 26.494 160.016 26.582 160.28 26.582C162.022 26.582 164.574 26.45 167.936 26.186V29.486Z" fill="black"/>
<defs>
<linearGradient id="paint0_linear_217_45" x1="46.0026" y1="37.3843" x2="5.91579" y2="15.3818" gradientUnits="userSpaceOnUse">
<stop offset="0.161458" stop-color="#1DACE3"/>
<stop offset="0.510417" stop-color="#052E79"/>
<stop offset="0.875" stop-color="#E9327C"/>
</linearGradient>
<linearGradient id="paint1_linear_217_45" x1="8.25" y1="12" x2="42.75" y2="38.625" gradientUnits="userSpaceOnUse">
<stop offset="0.15625" stop-color="white"/>
<stop offset="1" stop-color="white" stop-opacity="0"/>
</linearGradient>
</defs>
</svg>
